<svg xmlns="http://www.w3.org/2000/svg" width="410" height="404" viewBox="0 0 410 404" fill="none">
  <path d="M399.641 59.5246L224.294 374.347C219.724 382.593 208.522 383.197 203.094 375.459L10.2217 106.017C4.34354 97.7288 11.3866 86.4118 21.4908 88.2979L212.617 124.738C214.682 125.13 216.808 125.057 218.84 124.523L386.325 80.176C396.572 77.435 404.88 87.1114 399.641 59.5246Z" fill="#646CFF"/>
  <path d="M292.965 16.6581L163.005 42.314C160.868 42.744 159.212 44.3982 158.783 46.5361L133.168 176.493C132.094 181.893 137.149 186.461 142.44 184.717L175.42 173.78C180.75 172.01 185.75 176.978 184.044 182.327L154.01 275.988C152.231 281.556 157.972 286.541 163.415 284.452L193.315 272.936C198.744 270.843 204.484 275.829 202.707 281.396L180.435 351.13C177.688 359.755 189.055 365.86 194.824 359.063L203.094 375.459C208.522 383.197 219.724 382.593 224.294 374.347L399.641 59.5246C404.88 49.9012 396.572 40.2248 386.325 42.9658L218.84 87.3128C216.808 87.8466 214.682 87.9192 212.617 87.5273L21.4908 51.0868C11.3866 49.2007 4.34354 60.5177 10.2217 68.8062L133.168 176.493L158.783 46.5361C159.212 44.3982 160.868 42.744 163.005 42.314L292.965 16.6581Z" fill="#FFFFFF" fill-opacity="0.4"/>
</svg>


